<?xml version="1.0" standalone="no"?>
<!DOCTYPE svg PUBLIC "-//W3C//DTD SVG 20010904//EN"
 "http://www.w3.org/TR/2001/REC-SVG-20010904/DTD/svg10.dtd">
<svg version="1.0" xmlns="http://www.w3.org/2000/svg"
 width="1280.000000pt" height="680.000000pt" viewBox="0 0 1280.000000 680.000000"
 preserveAspectRatio="xMidYMid meet">
<metadata>
Created by potrace 1.15, written by Peter Selinger 2001-2017
</metadata>
<g transform="translate(0.000000,680.000000) scale(0.100000,-0.100000)"
fill="#000000" stroke="none">
<path d="M1470 6791 c-210 -40 -382 -193 -473 -421 -85 -214 -74 -521 28 -780
39 -100 130 -243 207 -325 l70 -75 -26 -22 c-14 -13 -304 -277 -644 -587
l-619 -564 -7 -485 c-3 -267 -5 -486 -4 -487 2 -1 255 186 562 416 308 230
561 417 563 415 2 -2 -30 -124 -71 -272 -131 -471 -349 -1257 -551 -1989 -109
-390 -221 -795 -250 -898 -35 -125 -49 -190 -41 -192 30 -9 760 -124 764 -121
3 4 302 716 559 1334 46 111 79 178 84 170 4 -7 65 -175 137 -373 72 -198 199
-549 282 -780 84 -231 166 -458 182 -505 17 -47 31 -86 32 -87 5 -5 769 -163
773 -160 2 3 -7 47 -21 98 -14 52 -221 876 -461 1831 -239 956 -438 1746 -442
1755 -5 16 -3 15 14 -2 51 -51 1091 -1224 1096 -1236 5 -12 7 -12 15 0 18 25
1087 1249 1089 1247 2 -2 -4 -27 -11 -57 -8 -30 -206 -817 -440 -1749 -234
-932 -437 -1738 -450 -1790 -13 -52 -23 -96 -21 -98 2 -3 671 135 751 154 24
6 9 -32 354 924 94 261 201 557 237 658 37 100 70 179 73 175 4 -4 28 -57 52
-118 75 -181 580 -1390 582 -1393 2 -1 176 26 387 61 357 59 384 65 381 83 -3
20 -212 775 -761 2754 -88 316 -158 576 -156 578 6 7 1083 -803 1084 -815 1
-7 4 -13 8 -13 3 0 256 187 561 416 304 228 555 414 557 412 2 -2 -45 -179
-104 -393 -116 -416 -405 -1457 -656 -2365 -85 -305 -155 -564 -157 -574 -3
-18 24 -24 381 -83 211 -35 385 -62 387 -61 2 3 352 839 521 1248 58 140 109
259 113 263 4 4 37 -77 74 -180 38 -103 145 -399 238 -658 347 -961 328 -913
352 -919 78 -19 749 -156 751 -154 2 2 -8 48 -22 103 -144 564 -902 3590 -900
3591 6 5 1092 -1226 1089 -1236 -1 -7 1 -10 6 -8 5 1 251 275 547 608 296 333
547 614 558 625 17 17 19 18 14 2 -4 -9 -203 -799 -442 -1755 -240 -955 -447
-1779 -461 -1831 -14 -51 -23 -95 -21 -98 4 -3 768 155 773 160 1 1 15 40 32
87 16 47 98 274 182 505 83 231 210 582 282 780 72 198 133 366 137 373 5 8
38 -59 84 -170 257 -618 556 -1330 559 -1334 4 -3 734 112 764 121 8 2 -6 67
-41 192 -29 103 -141 508 -250 898 -202 732 -420 1518 -551 1989 -41 148 -73
270 -71 272 2 2 255 -185 563 -415 307 -230 560 -417 562 -416 1 1 -1 220 -4
487 l-7 485 -619 564 c-340 310 -630 574 -644 587 l-26 22 70 75 c77 82 168
225 207 325 102 259 113 566 28 780 -80 198 -207 329 -391 398 -58 22 -83 25
-187 25 -103 0 -132 -4 -200 -26 -292 -96 -537 -382 -632 -737 -35 -131 -43
-348 -19 -471 48 -236 184 -431 361 -518 l67 -33 -20 -22 c-11 -11 -282 -361
-602 -776 -320 -415 -585 -759 -590 -763 -4 -5 -278 346 -609 778 -332 433
-601 787 -599 788 1 1 35 17 73 36 106 52 209 161 269 282 59 119 86 225 93
364 19 375 -162 765 -450 963 -92 63 -118 76 -213 107 -157 51 -320 42 -461
-27 -89 -43 -215 -167 -268 -261 -203 -366 -119 -881 200 -1235 l48 -54 -39
-37 c-21 -21 -291 -264 -599 -541 -308 -277 -578 -520 -600 -541 l-40 -39
-605 551 c-333 303 -618 563 -634 579 l-29 29 48 53 c316 350 400 849 207
1223 -50 97 -182 228 -275 273 -141 69 -304 78 -461 27 -95 -31 -121 -44 -213
-107 -288 -198 -469 -588 -450 -963 7 -139 34 -245 93 -364 60 -121 163 -230
269 -282 39 -19 72 -35 73 -36 2 -1 -265 -359 -595 -797 -560 -745 -599 -794
-615 -778 -9 9 -276 357 -593 772 -318 415 -586 765 -597 776 l-20 22 67 33
c177 87 313 282 361 518 24 123 16 340 -19 471 -95 355 -343 644 -631 736 -87
27 -230 39 -306 25z"/>
</g>
</svg>
